PathFileType	4	(X/Y/Z)	./resultDataOpenSim/trcMotMarkerGrf/sub06/qtm-15-06.trc
DataRate	CameraRate	NumFrames	NumMarkers	Units	OrigDataRate	OrigDataStartFrame	OrigNumFrames
250.000000	250.000000	7	24	m	250.000000	1	536
Frame#	Time	L.Toe.Tip			R.Toe.Tip			L.Ankle.Lat			R.Ankle.Lat			L.Ankle.Med			R.Ankle.Med			L.Heel			R.Heel			L.Knee.Lat			R.Knee.Lat			L.Knee.Med			R.Knee.Med			L.Thigh.Upper			R.Thigh.Upper			L.ASIS			R.ASIS			V.Sacral			L.Acromium			R.Acromium			C7			L.Elbow			R.Elbow			L.Wrist.Lat			R.Wrist.Lat
		X1	Y1	Z1	X2	Y2	Z2	X3	Y3	Z3	X4	Y4	Z4	X5	Y5	Z5	X6	Y6	Z6	X7	Y7	Z7	X8	Y8	Z8	X9	Y9	Z9	X10	Y10	Z10	X11	Y11	Z11	X12	Y12	Z12	X13	Y13	Z13	X14	Y14	Z14	X15	Y15	Z15	X16	Y16	Z16	X17	Y17	Z17	X18	Y18	Z18	X19	Y19	Z19	X20	Y20	Z20	X21	Y21	Z21	X22	Y22	Z22	X23	Y23	Z23	X24	Y24	Z24

1	0	-1.5506071	0.031563995	-0.099995765	-0.93566019	0.12733246	0.099154523	-1.6719296	0.071951497	-0.11999963	-1.0635739	0.0892625	0.10641022	-1.6645539	0.085729361	-0.036026107	-1.0512532	0.1208047	0.022675788	NaN	NaN	NaN	-1.094134	0.044471971	0.033245059	-1.5138669	0.40955253	-0.13603355	-1.2025006	0.45157326	0.11619604	-1.5273775	0.41476628	-0.016571874	-1.213019	0.42977179	-0.01496754	-1.4159693	0.78358834	-0.19688999	-1.391704	0.77408115	0.15188497	-1.3306452	0.82301361	-0.15850044	-1.3081563	0.82810703	0.088870073	-1.4962088	0.90896283	-0.0079491907	-1.3412603	1.3115713	-0.20863363	-1.3558976	1.2916913	0.1552556	-1.4244468	1.3453638	-0.028325885	-1.3434898	0.98812579	-0.28215705	-1.4858832	1.000869	0.20351762	-1.1345178	0.8590412	-0.23720626	-1.3914687	0.78100339	0.23840538
2	0.004	-1.5505567	0.031535895	-0.1000073	-0.92462817	0.13055511	0.098876334	-1.6714996	0.072599785	-0.11995653	-1.0517734	0.090233379	0.10603089	-1.664208	0.086251608	-0.035975859	-1.039946	0.12221081	0.022378324	NaN	NaN	NaN	-1.0816148	0.045022271	0.032843916	-1.5103694	0.40887514	-0.13599551	-1.1965291	0.45029532	0.11603305	-1.5241796	0.41407686	-0.016437123	-1.2066402	0.42840032	-0.015374556	-1.4109423	0.78233097	-0.19657091	-1.3856422	0.77228123	0.1518509	-1.325027	0.82163193	-0.15845349	-1.3018869	0.82636914	0.088658748	-1.4902027	0.9076244	-0.0072301041	-1.3354071	1.3101103	-0.20827368	-1.3505673	1.2901211	0.15575149	-1.4188069	1.3439393	-0.028202196	-1.3363835	0.98660522	-0.28170057	-1.480952	0.99959852	0.20340443	-1.1272144	0.85820561	-0.23591863	-1.3884694	0.77917384	0.23910627
3	0.008	-1.5505065	0.031512384	-0.10002222	-0.91385801	0.13350528	0.098580925	-1.6710496	0.073302657	-0.11992313	-1.0402964	0.091111536	0.10557466	-1.664662	0.086655209	-0.035636766	-1.028934	0.12353314	0.022037521	NaN	NaN	NaN	-1.0695037	0.045541329	0.032399805	-1.5068211	0.40822419	-0.13598378	-1.1903968	0.4490579	0.11592525	-1.5205821	0.41342562	-0.016363237	-1.2002376	0.42706032	-0.015760099	-1.405875	0.78106953	-0.1962341	-1.379229	0.77057118	0.15189644	-1.3194192	0.82027448	-0.15845586	-1.2955433	0.82468957	0.088446221	-1.4841701	0.90630895	-0.0065804232	-1.3295311	1.3086708	-0.20787749	-1.3451868	1.2885689	0.15625721	-1.413121	1.3425516	-0.027992843	-1.3292825	0.98510944	-0.28119257	-1.4760293	0.99845887	0.20331642	-1.1199744	0.8573376	-0.2346635	-1.3854159	0.77734543	0.23980175
4	0.012	-1.550459	0.031493563	-0.10004109	-0.90351337	0.13600935	0.09824365	-1.6705268	0.074093326	-0.11993015	-1.0293328	0.091839807	0.1050076	-1.6663266	0.08690767	-0.034887627	-1.0183905	0.12470214	0.021620459	NaN	NaN	NaN	-1.058006	0.045995774	0.031866533	-1.5031802	0.40760693	-0.13598826	-1.1840494	0.44787467	0.11588305	-1.5164823	0.41280296	-0.016363246	-1.1937759	0.42578088	-0.016106676	-1.4007369	0.77981358	-0.1958906	-1.3725682	0.76895042	0.1519959	-1.313816	0.81895195	-0.15851655	-1.2890978	0.82308353	0.088229182	-1.4780976	0.90503399	-0.0060513092	-1.3236094	1.307267	-0.20743744	-1.3397139	1.2870397	0.15678191	-1.4073486	1.341224	-0.027641669	-1.322182	0.98364925	-0.28060191	-1.4711061	0.99744632	0.2032877	-1.1128074	0.85642083	-0.23344513	-1.3822645	0.77553564	0.2404952
5	0.016	-1.5504185	0.031475656	-0.10006323	-0.89367106	0.13802035	0.097814455	-1.6698559	0.07497117	-0.12001437	-1.018955	0.092396513	0.10435055	-1.6684767	0.087188085	-0.034016921	-1.0083891	0.12566182	0.021108814	NaN	NaN	NaN	-1.0471413	0.046355768	0.031202045	-1.4994182	0.40701574	-0.13598959	-1.1775343	0.44674427	0.11587499	-1.5120357	0.41217792	-0.016404243	-1.1872345	0.42459439	-0.01640318	-1.3955205	0.77858191	-0.19555027	-1.3658952	0.76740386	0.15208915	-1.3082027	0.81766903	-0.15860323	-1.2825727	0.82154682	0.088005988	-1.4720028	0.90381336	-0.0056747893	-1.3176364	1.3059073	-0.20697257	-1.3341291	1.2855392	0.1573287	-1.4014919	1.3399612	-0.027179706	-1.3150915	0.98223172	-0.27993741	-1.4661612	0.99645067	0.20334642	-1.105709	0.85545979	-0.2322493	-1.3789857	0.7737768	0.24119341
6	0.02	-1.5503883	0.031455784	-0.10008958	-0.88434746	0.1395647	0.097239745	-1.6690064	0.07592389	-0.12018484	-1.0091669	0.092773387	0.10364204	-1.6696387	0.087795193	-0.033542458	-0.99894188	0.12637023	0.020498294	NaN	NaN	NaN	-1.0369101	0.046594453	0.030435693	-1.495504	0.40643465	-0.13599017	-1.1708654	0.44567614	0.11586626	-1.5074484	0.41154234	-0.01644437	-1.1805985	0.42353854	-0.016649949	-1.3902259	0.77738811	-0.19519487	-1.3592352	0.76595459	0.15216078	-1.3025509	0.81643564	-0.15866897	-1.2759866	0.82008225	0.087779986	-1.4659052	0.90265378	-0.0054620324	-1.3116147	1.3045961	-0.20650571	-1.3284276	1.284078	0.1578957	-1.3955774	1.3387553	-0.026695633	-1.3080258	0.98086314	-0.27922951	-1.4611432	0.99539397	0.20348119	-1.0986774	0.85446077	-0.231064	-1.3755422	0.77209397	0.24190187
7	0.024	-1.5503682	0.031434515	-0.10012109	-0.87554053	0.14067514	0.096497733	-1.6681212	0.076950932	-0.12039829	-0.99996065	0.092956465	0.10289065	-1.6691214	0.088858083	-0.033678528	-0.99003774	0.12680535	0.019794775	NaN	NaN	NaN	-1.0273999	0.046677272	0.029670445	-1.4914139	0.40585007	-0.13600196	-1.1639909	0.44469946	0.1158361	-1.5028625	0.41090724	-0.016456848	-1.1738556	0.42264964	-0.016863813	-1.3848581	0.77624123	-0.19480134	-1.3525406	0.76462257	0.15222784	-1.2968392	0.81526281	-0.15868052	-1.2693377	0.81870196	0.08755745	-1.4598007	0.90155362	-0.0053699998	-1.3055512	1.3033391	-0.20604034	-1.3226194	1.2826637	0.15847845	-1.3896203	1.337602	-0.026229971	-1.3009969	0.97954776	-0.27849448	-1.4559855	0.99428931	0.20364506	-1.0917105	0.85342448	-0.22988933	-1.3718981	0.77049473	0.24262261
